<defs><linearGradient id="g1" x1="0" y1="0" x2="1" y2="1">
<stop offset="0%" stop-color="#6b7280"/>
<stop offset="100%" stop-color="#334155"/>
</linearGradient></defs>
<svg xmlns="http://www.w3.org/2000/svg" width="16" height="16" viewBox="0 0 16 16">
<rect x="14.719999999999999" y="7.36" width="1.28" height="1.28" rx="0.24" fill="url(#g1)" transform="rotate(0 15.36 8.0)"/>
<rect x="12.56430590953299" y="12.564305909532989" width="1.28" height="1.28" rx="0.24" fill="url(#g1)" transform="rotate(45 13.20430590953299 13.204305909532989)"/>
<rect x="7.36" y="14.719999999999999" width="1.28" height="1.28" rx="0.24" fill="url(#g1)" transform="rotate(90 8.0 15.36)"/>
<rect x="2.1556940904670108" y="12.56430590953299" width="1.28" height="1.28" rx="0.24" fill="url(#g1)" transform="rotate(135 2.795694090467011 13.20430590953299)"/>
<rect x="-3.3306690738754696e-16" y="7.360000000000002" width="1.28" height="1.28" rx="0.24" fill="url(#g1)" transform="rotate(180 0.6399999999999997 8.000000000000002)"/>
<rect x="2.155694090467009" y="2.1556940904670108" width="1.28" height="1.28" rx="0.24" fill="url(#g1)" transform="rotate(225 2.795694090467009 2.795694090467011)"/>
<rect x="7.3599999999999985" y="-3.3306690738754696e-16" width="1.28" height="1.28" rx="0.24" fill="url(#g1)" transform="rotate(270 7.999999999999998 0.6399999999999997)"/>
<rect x="12.564305909532989" y="2.155694090467009" width="1.28" height="1.28" rx="0.24" fill="url(#g1)" transform="rotate(315 13.204305909532989 2.795694090467009)"/>
<circle cx="8.0" cy="8.0" r="6.08" fill="url(#g1)"/>
<circle cx="8.0" cy="8.0" r="3.52" fill="#1e293b"/>
<circle cx="8.0" cy="8.0" r="1.76" fill="#3b82f6"/>
</svg>