<defs><linearGradient id="g1" x1="0" y1="0" x2="1" y2="1">
<stop offset="0%" stop-color="#334155"/>
<stop offset="100%" stop-color="#1e293b"/>
</linearGradient></defs>
<svg xmlns="http://www.w3.org/2000/svg" width="32" height="32" viewBox="0 0 32 32">
<rect x="6.4" y="3.84" width="19.2" height="24.32" rx="1.6" fill="url(#g1)"/>
<rect x="8.32" y="6.4" width="15.36" height="4.8" rx="0.64" fill="#10b981" opacity="0.3"/>
<text x="21.76" y="9.92" font-family="monospace" font-size="3.2" fill="#10b981" text-anchor="end">0</text>
<rect x="8.32" y="12.8" width="4.16" height="2.56" rx="0.48" fill="#6b7280"/>
<rect x="13.760000000000002" y="12.8" width="4.16" height="2.56" rx="0.48" fill="#6b7280"/>
<rect x="19.200000000000003" y="12.8" width="4.16" height="2.56" rx="0.48" fill="#6b7280"/>
<rect x="8.32" y="16.32" width="4.16" height="2.56" rx="0.48" fill="#6b7280"/>
<rect x="13.760000000000002" y="16.32" width="4.16" height="2.56" rx="0.48" fill="#6b7280"/>
<rect x="19.200000000000003" y="16.32" width="4.16" height="2.56" rx="0.48" fill="#6b7280"/>
<rect x="8.32" y="19.84" width="4.16" height="2.56" rx="0.48" fill="#6b7280"/>
<rect x="13.760000000000002" y="19.84" width="4.16" height="2.56" rx="0.48" fill="#6b7280"/>
<rect x="19.200000000000003" y="19.84" width="4.16" height="2.56" rx="0.48" fill="#6b7280"/>
<rect x="8.32" y="23.36" width="4.16" height="2.56" rx="0.48" fill="#6b7280"/>
<rect x="13.760000000000002" y="23.36" width="4.16" height="2.56" rx="0.48" fill="#6b7280"/>
<rect x="19.200000000000003" y="23.36" width="4.16" height="2.56" rx="0.48" fill="#3b82f6"/>
</svg>