<defs><linearGradient id="g1" x1="0" y1="0" x2="1" y2="1">
<stop offset="0%" stop-color="#6b7280"/>
<stop offset="100%" stop-color="#334155"/>
</linearGradient></defs>
<svg xmlns="http://www.w3.org/2000/svg" width="32" height="32" viewBox="0 0 32 32">
<rect x="29.439999999999998" y="14.72" width="2.56" height="2.56" rx="0.48" fill="url(#g1)" transform="rotate(0 30.72 16.0)"/>
<rect x="25.12861181906598" y="25.128611819065977" width="2.56" height="2.56" rx="0.48" fill="url(#g1)" transform="rotate(45 26.40861181906598 26.408611819065978)"/>
<rect x="14.72" y="29.439999999999998" width="2.56" height="2.56" rx="0.48" fill="url(#g1)" transform="rotate(90 16.0 30.72)"/>
<rect x="4.3113881809340215" y="25.12861181906598" width="2.56" height="2.56" rx="0.48" fill="url(#g1)" transform="rotate(135 5.591388180934022 26.40861181906598)"/>
<rect x="-6.661338147750939e-16" y="14.720000000000004" width="2.56" height="2.56" rx="0.48" fill="url(#g1)" transform="rotate(180 1.2799999999999994 16.000000000000004)"/>
<rect x="4.311388180934018" y="4.3113881809340215" width="2.56" height="2.56" rx="0.48" fill="url(#g1)" transform="rotate(225 5.591388180934018 5.591388180934022)"/>
<rect x="14.719999999999997" y="-6.661338147750939e-16" width="2.56" height="2.56" rx="0.48" fill="url(#g1)" transform="rotate(270 15.999999999999996 1.2799999999999994)"/>
<rect x="25.128611819065977" y="4.311388180934018" width="2.56" height="2.56" rx="0.48" fill="url(#g1)" transform="rotate(315 26.408611819065978 5.591388180934018)"/>
<circle cx="16.0" cy="16.0" r="12.16" fill="url(#g1)"/>
<circle cx="16.0" cy="16.0" r="7.04" fill="#1e293b"/>
<circle cx="16.0" cy="16.0" r="3.52" fill="#3b82f6"/>
</svg>