<defs><linearGradient id="g1" x1="0" y1="0" x2="1" y2="1">
<stop offset="0%" stop-color="#334155"/>
<stop offset="100%" stop-color="#1e293b"/>
</linearGradient></defs>
<svg xmlns="http://www.w3.org/2000/svg" width="24" height="24" viewBox="0 0 24 24">
<rect x="4.800000000000001" y="2.88" width="14.399999999999999" height="18.240000000000002" rx="1.2000000000000002" fill="url(#g1)"/>
<rect x="6.24" y="4.800000000000001" width="11.52" height="3.5999999999999996" rx="0.48" fill="#10b981" opacity="0.3"/>
<text x="16.32" y="7.4399999999999995" font-family="monospace" font-size="2.4000000000000004" fill="#10b981" text-anchor="end">0</text>
<rect x="6.24" y="9.600000000000001" width="3.12" height="1.92" rx="0.36" fill="#6b7280"/>
<rect x="10.32" y="9.600000000000001" width="3.12" height="1.92" rx="0.36" fill="#6b7280"/>
<rect x="14.400000000000002" y="9.600000000000001" width="3.12" height="1.92" rx="0.36" fill="#6b7280"/>
<rect x="6.24" y="12.24" width="3.12" height="1.92" rx="0.36" fill="#6b7280"/>
<rect x="10.32" y="12.24" width="3.12" height="1.92" rx="0.36" fill="#6b7280"/>
<rect x="14.400000000000002" y="12.24" width="3.12" height="1.92" rx="0.36" fill="#6b7280"/>
<rect x="6.24" y="14.879999999999999" width="3.12" height="1.92" rx="0.36" fill="#6b7280"/>
<rect x="10.32" y="14.879999999999999" width="3.12" height="1.92" rx="0.36" fill="#6b7280"/>
<rect x="14.400000000000002" y="14.879999999999999" width="3.12" height="1.92" rx="0.36" fill="#6b7280"/>
<rect x="6.24" y="17.52" width="3.12" height="1.92" rx="0.36" fill="#6b7280"/>
<rect x="10.32" y="17.52" width="3.12" height="1.92" rx="0.36" fill="#6b7280"/>
<rect x="14.400000000000002" y="17.52" width="3.12" height="1.92" rx="0.36" fill="#3b82f6"/>
</svg>