<defs><linearGradient id="g1" x1="0" y1="0" x2="1" y2="1">
<stop offset="0%" stop-color="#334155"/>
<stop offset="100%" stop-color="#1e293b"/>
</linearGradient></defs>
<svg xmlns="http://www.w3.org/2000/svg" width="64" height="64" viewBox="0 0 64 64">
<rect x="12.8" y="7.68" width="38.4" height="48.64" rx="3.2" fill="url(#g1)"/>
<rect x="16.64" y="12.8" width="30.72" height="9.6" rx="1.28" fill="#10b981" opacity="0.3"/>
<text x="43.52" y="19.84" font-family="monospace" font-size="6.4" fill="#10b981" text-anchor="end">0</text>
<rect x="16.64" y="25.6" width="8.32" height="5.12" rx="0.96" fill="#6b7280"/>
<rect x="27.520000000000003" y="25.6" width="8.32" height="5.12" rx="0.96" fill="#6b7280"/>
<rect x="38.400000000000006" y="25.6" width="8.32" height="5.12" rx="0.96" fill="#6b7280"/>
<rect x="16.64" y="32.64" width="8.32" height="5.12" rx="0.96" fill="#6b7280"/>
<rect x="27.520000000000003" y="32.64" width="8.32" height="5.12" rx="0.96" fill="#6b7280"/>
<rect x="38.400000000000006" y="32.64" width="8.32" height="5.12" rx="0.96" fill="#6b7280"/>
<rect x="16.64" y="39.68" width="8.32" height="5.12" rx="0.96" fill="#6b7280"/>
<rect x="27.520000000000003" y="39.68" width="8.32" height="5.12" rx="0.96" fill="#6b7280"/>
<rect x="38.400000000000006" y="39.68" width="8.32" height="5.12" rx="0.96" fill="#6b7280"/>
<rect x="16.64" y="46.72" width="8.32" height="5.12" rx="0.96" fill="#6b7280"/>
<rect x="27.520000000000003" y="46.72" width="8.32" height="5.12" rx="0.96" fill="#6b7280"/>
<rect x="38.400000000000006" y="46.72" width="8.32" height="5.12" rx="0.96" fill="#3b82f6"/>
</svg>