<svg xmlns="http://www.w3.org/2000/svg" width="1920" height="1080" viewBox="0 0 1920 1080">
<defs>
<linearGradient id="bgGrad" x1="0" y1="0" x2="0" y2="1">
<stop offset="0%" stop-color="#f8fafc"/>
<stop offset="100%" stop-color="#e2e8f0"/>
</linearGradient>
</defs>
<rect width="1920" height="1080" fill="url(#bgGrad)"/>
<rect x="0" y="0" width="1920" height="86.4" fill="#3b82f6" opacity="0.1"/>
<rect x="0" y="993.6" width="1920" height="86.4" fill="#3b82f6" opacity="0.05"/>
<rect x="57.599999999999994" y="162.0" width="4" height="756.0" rx="2" fill="#3b82f6" opacity="0.3"/>
<circle cx="192" cy="216" r="2" fill="#3b82f6" opacity="0.1"/>
<circle cx="192" cy="296" r="2" fill="#3b82f6" opacity="0.1"/>
<circle cx="192" cy="376" r="2" fill="#3b82f6" opacity="0.1"/>
<circle cx="192" cy="456" r="2" fill="#3b82f6" opacity="0.1"/>
<circle cx="192" cy="536" r="2" fill="#3b82f6" opacity="0.1"/>
<circle cx="192" cy="616" r="2" fill="#3b82f6" opacity="0.1"/>
<circle cx="192" cy="696" r="2" fill="#3b82f6" opacity="0.1"/>
<circle cx="192" cy="776" r="2" fill="#3b82f6" opacity="0.1"/>
<circle cx="192" cy="856" r="2" fill="#3b82f6" opacity="0.1"/>
<circle cx="272" cy="216" r="2" fill="#3b82f6" opacity="0.1"/>
<circle cx="272" cy="296" r="2" fill="#3b82f6" opacity="0.1"/>
<circle cx="272" cy="376" r="2" fill="#3b82f6" opacity="0.1"/>
<circle cx="272" cy="456" r="2" fill="#3b82f6" opacity="0.1"/>
<circle cx="272" cy="536" r="2" fill="#3b82f6" opacity="0.1"/>
<circle cx="272" cy="616" r="2" fill="#3b82f6" opacity="0.1"/>
<circle cx="272" cy="696" r="2" fill="#3b82f6" opacity="0.1"/>
<circle cx="272" cy="776" r="2" fill="#3b82f6" opacity="0.1"/>
<circle cx="272" cy="856" r="2" fill="#3b82f6" opacity="0.1"/>
<circle cx="352" cy="216" r="2" fill="#3b82f6" opacity="0.1"/>
<circle cx="352" cy="296" r="2" fill="#3b82f6" opacity="0.1"/>
<circle cx="352" cy="376" r="2" fill="#3b82f6" opacity="0.1"/>
<circle cx="352" cy="456" r="2" fill="#3b82f6" opacity="0.1"/>
<circle cx="352" cy="536" r="2" fill="#3b82f6" opacity="0.1"/>
<circle cx="352" cy="616" r="2" fill="#3b82f6" opacity="0.1"/>
<circle cx="352" cy="696" r="2" fill="#3b82f6" opacity="0.1"/>
<circle cx="352" cy="776" r="2" fill="#3b82f6" opacity="0.1"/>
<circle cx="352" cy="856" r="2" fill="#3b82f6" opacity="0.1"/>
<circle cx="432" cy="216" r="2" fill="#3b82f6" opacity="0.1"/>
<circle cx="432" cy="296" r="2" fill="#3b82f6" opacity="0.1"/>
<circle cx="432" cy="376" r="2" fill="#3b82f6" opacity="0.1"/>
<circle cx="432" cy="456" r="2" fill="#3b82f6" opacity="0.1"/>
<circle cx="432" cy="536" r="2" fill="#3b82f6" opacity="0.1"/>
<circle cx="432" cy="616" r="2" fill="#3b82f6" opacity="0.1"/>
<circle cx="432" cy="696" r="2" fill="#3b82f6" opacity="0.1"/>
<circle cx="432" cy="776" r="2" fill="#3b82f6" opacity="0.1"/>
<circle cx="432" cy="856" r="2" fill="#3b82f6" opacity="0.1"/>
<circle cx="512" cy="216" r="2" fill="#3b82f6" opacity="0.1"/>
<circle cx="512" cy="296" r="2" fill="#3b82f6" opacity="0.1"/>
<circle cx="512" cy="376" r="2" fill="#3b82f6" opacity="0.1"/>
<circle cx="512" cy="456" r="2" fill="#3b82f6" opacity="0.1"/>
<circle cx="512" cy="536" r="2" fill="#3b82f6" opacity="0.1"/>
<circle cx="512" cy="616" r="2" fill="#3b82f6" opacity="0.1"/>
<circle cx="512" cy="696" r="2" fill="#3b82f6" opacity="0.1"/>
<circle cx="512" cy="776" r="2" fill="#3b82f6" opacity="0.1"/>
<circle cx="512" cy="856" r="2" fill="#3b82f6" opacity="0.1"/>
<circle cx="592" cy="216" r="2" fill="#3b82f6" opacity="0.1"/>
<circle cx="592" cy="296" r="2" fill="#3b82f6" opacity="0.1"/>
<circle cx="592" cy="376" r="2" fill="#3b82f6" opacity="0.1"/>
<circle cx="592" cy="456" r="2" fill="#3b82f6" opacity="0.1"/>
<circle cx="592" cy="536" r="2" fill="#3b82f6" opacity="0.1"/>
<circle cx="592" cy="616" r="2" fill="#3b82f6" opacity="0.1"/>
<circle cx="592" cy="696" r="2" fill="#3b82f6" opacity="0.1"/>
<circle cx="592" cy="776" r="2" fill="#3b82f6" opacity="0.1"/>
<circle cx="592" cy="856" r="2" fill="#3b82f6" opacity="0.1"/>
<circle cx="672" cy="216" r="2" fill="#3b82f6" opacity="0.1"/>
<circle cx="672" cy="296" r="2" fill="#3b82f6" opacity="0.1"/>
<circle cx="672" cy="376" r="2" fill="#3b82f6" opacity="0.1"/>
<circle cx="672" cy="456" r="2" fill="#3b82f6" opacity="0.1"/>
<circle cx="672" cy="536" r="2" fill="#3b82f6" opacity="0.1"/>
<circle cx="672" cy="616" r="2" fill="#3b82f6" opacity="0.1"/>
<circle cx="672" cy="696" r="2" fill="#3b82f6" opacity="0.1"/>
<circle cx="672" cy="776" r="2" fill="#3b82f6" opacity="0.1"/>
<circle cx="672" cy="856" r="2" fill="#3b82f6" opacity="0.1"/>
<circle cx="752" cy="216" r="2" fill="#3b82f6" opacity="0.1"/>
<circle cx="752" cy="296" r="2" fill="#3b82f6" opacity="0.1"/>
<circle cx="752" cy="376" r="2" fill="#3b82f6" opacity="0.1"/>
<circle cx="752" cy="456" r="2" fill="#3b82f6" opacity="0.1"/>
<circle cx="752" cy="536" r="2" fill="#3b82f6" opacity="0.1"/>
<circle cx="752" cy="616" r="2" fill="#3b82f6" opacity="0.1"/>
<circle cx="752" cy="696" r="2" fill="#3b82f6" opacity="0.1"/>
<circle cx="752" cy="776" r="2" fill="#3b82f6" opacity="0.1"/>
<circle cx="752" cy="856" r="2" fill="#3b82f6" opacity="0.1"/>
<circle cx="832" cy="216" r="2" fill="#3b82f6" opacity="0.1"/>
<circle cx="832" cy="296" r="2" fill="#3b82f6" opacity="0.1"/>
<circle cx="832" cy="376" r="2" fill="#3b82f6" opacity="0.1"/>
<circle cx="832" cy="456" r="2" fill="#3b82f6" opacity="0.1"/>
<circle cx="832" cy="536" r="2" fill="#3b82f6" opacity="0.1"/>
<circle cx="832" cy="616" r="2" fill="#3b82f6" opacity="0.1"/>
<circle cx="832" cy="696" r="2" fill="#3b82f6" opacity="0.1"/>
<circle cx="832" cy="776" r="2" fill="#3b82f6" opacity="0.1"/>
<circle cx="832" cy="856" r="2" fill="#3b82f6" opacity="0.1"/>
<circle cx="912" cy="216" r="2" fill="#3b82f6" opacity="0.1"/>
<circle cx="912" cy="296" r="2" fill="#3b82f6" opacity="0.1"/>
<circle cx="912" cy="376" r="2" fill="#3b82f6" opacity="0.1"/>
<circle cx="912" cy="456" r="2" fill="#3b82f6" opacity="0.1"/>
<circle cx="912" cy="536" r="2" fill="#3b82f6" opacity="0.1"/>
<circle cx="912" cy="616" r="2" fill="#3b82f6" opacity="0.1"/>
<circle cx="912" cy="696" r="2" fill="#3b82f6" opacity="0.1"/>
<circle cx="912" cy="776" r="2" fill="#3b82f6" opacity="0.1"/>
<circle cx="912" cy="856" r="2" fill="#3b82f6" opacity="0.1"/>
<circle cx="992" cy="216" r="2" fill="#3b82f6" opacity="0.1"/>
<circle cx="992" cy="296" r="2" fill="#3b82f6" opacity="0.1"/>
<circle cx="992" cy="376" r="2" fill="#3b82f6" opacity="0.1"/>
<circle cx="992" cy="456" r="2" fill="#3b82f6" opacity="0.1"/>
<circle cx="992" cy="536" r="2" fill="#3b82f6" opacity="0.1"/>
<circle cx="992" cy="616" r="2" fill="#3b82f6" opacity="0.1"/>
<circle cx="992" cy="696" r="2" fill="#3b82f6" opacity="0.1"/>
<circle cx="992" cy="776" r="2" fill="#3b82f6" opacity="0.1"/>
<circle cx="992" cy="856" r="2" fill="#3b82f6" opacity="0.1"/>
<circle cx="1072" cy="216" r="2" fill="#3b82f6" opacity="0.1"/>
<circle cx="1072" cy="296" r="2" fill="#3b82f6" opacity="0.1"/>
<circle cx="1072" cy="376" r="2" fill="#3b82f6" opacity="0.1"/>
<circle cx="1072" cy="456" r="2" fill="#3b82f6" opacity="0.1"/>
<circle cx="1072" cy="536" r="2" fill="#3b82f6" opacity="0.1"/>
<circle cx="1072" cy="616" r="2" fill="#3b82f6" opacity="0.1"/>
<circle cx="1072" cy="696" r="2" fill="#3b82f6" opacity="0.1"/>
<circle cx="1072" cy="776" r="2" fill="#3b82f6" opacity="0.1"/>
<circle cx="1072" cy="856" r="2" fill="#3b82f6" opacity="0.1"/>
<circle cx="1152" cy="216" r="2" fill="#3b82f6" opacity="0.1"/>
<circle cx="1152" cy="296" r="2" fill="#3b82f6" opacity="0.1"/>
<circle cx="1152" cy="376" r="2" fill="#3b82f6" opacity="0.1"/>
<circle cx="1152" cy="456" r="2" fill="#3b82f6" opacity="0.1"/>
<circle cx="1152" cy="536" r="2" fill="#3b82f6" opacity="0.1"/>
<circle cx="1152" cy="616" r="2" fill="#3b82f6" opacity="0.1"/>
<circle cx="1152" cy="696" r="2" fill="#3b82f6" opacity="0.1"/>
<circle cx="1152" cy="776" r="2" fill="#3b82f6" opacity="0.1"/>
<circle cx="1152" cy="856" r="2" fill="#3b82f6" opacity="0.1"/>
<circle cx="1232" cy="216" r="2" fill="#3b82f6" opacity="0.1"/>
<circle cx="1232" cy="296" r="2" fill="#3b82f6" opacity="0.1"/>
<circle cx="1232" cy="376" r="2" fill="#3b82f6" opacity="0.1"/>
<circle cx="1232" cy="456" r="2" fill="#3b82f6" opacity="0.1"/>
<circle cx="1232" cy="536" r="2" fill="#3b82f6" opacity="0.1"/>
<circle cx="1232" cy="616" r="2" fill="#3b82f6" opacity="0.1"/>
<circle cx="1232" cy="696" r="2" fill="#3b82f6" opacity="0.1"/>
<circle cx="1232" cy="776" r="2" fill="#3b82f6" opacity="0.1"/>
<circle cx="1232" cy="856" r="2" fill="#3b82f6" opacity="0.1"/>
<circle cx="1312" cy="216" r="2" fill="#3b82f6" opacity="0.1"/>
<circle cx="1312" cy="296" r="2" fill="#3b82f6" opacity="0.1"/>
<circle cx="1312" cy="376" r="2" fill="#3b82f6" opacity="0.1"/>
<circle cx="1312" cy="456" r="2" fill="#3b82f6" opacity="0.1"/>
<circle cx="1312" cy="536" r="2" fill="#3b82f6" opacity="0.1"/>
<circle cx="1312" cy="616" r="2" fill="#3b82f6" opacity="0.1"/>
<circle cx="1312" cy="696" r="2" fill="#3b82f6" opacity="0.1"/>
<circle cx="1312" cy="776" r="2" fill="#3b82f6" opacity="0.1"/>
<circle cx="1312" cy="856" r="2" fill="#3b82f6" opacity="0.1"/>
<circle cx="1392" cy="216" r="2" fill="#3b82f6" opacity="0.1"/>
<circle cx="1392" cy="296" r="2" fill="#3b82f6" opacity="0.1"/>
<circle cx="1392" cy="376" r="2" fill="#3b82f6" opacity="0.1"/>
<circle cx="1392" cy="456" r="2" fill="#3b82f6" opacity="0.1"/>
<circle cx="1392" cy="536" r="2" fill="#3b82f6" opacity="0.1"/>
<circle cx="1392" cy="616" r="2" fill="#3b82f6" opacity="0.1"/>
<circle cx="1392" cy="696" r="2" fill="#3b82f6" opacity="0.1"/>
<circle cx="1392" cy="776" r="2" fill="#3b82f6" opacity="0.1"/>
<circle cx="1392" cy="856" r="2" fill="#3b82f6" opacity="0.1"/>
<circle cx="1472" cy="216" r="2" fill="#3b82f6" opacity="0.1"/>
<circle cx="1472" cy="296" r="2" fill="#3b82f6" opacity="0.1"/>
<circle cx="1472" cy="376" r="2" fill="#3b82f6" opacity="0.1"/>
<circle cx="1472" cy="456" r="2" fill="#3b82f6" opacity="0.1"/>
<circle cx="1472" cy="536" r="2" fill="#3b82f6" opacity="0.1"/>
<circle cx="1472" cy="616" r="2" fill="#3b82f6" opacity="0.1"/>
<circle cx="1472" cy="696" r="2" fill="#3b82f6" opacity="0.1"/>
<circle cx="1472" cy="776" r="2" fill="#3b82f6" opacity="0.1"/>
<circle cx="1472" cy="856" r="2" fill="#3b82f6" opacity="0.1"/>
<circle cx="1552" cy="216" r="2" fill="#3b82f6" opacity="0.1"/>
<circle cx="1552" cy="296" r="2" fill="#3b82f6" opacity="0.1"/>
<circle cx="1552" cy="376" r="2" fill="#3b82f6" opacity="0.1"/>
<circle cx="1552" cy="456" r="2" fill="#3b82f6" opacity="0.1"/>
<circle cx="1552" cy="536" r="2" fill="#3b82f6" opacity="0.1"/>
<circle cx="1552" cy="616" r="2" fill="#3b82f6" opacity="0.1"/>
<circle cx="1552" cy="696" r="2" fill="#3b82f6" opacity="0.1"/>
<circle cx="1552" cy="776" r="2" fill="#3b82f6" opacity="0.1"/>
<circle cx="1552" cy="856" r="2" fill="#3b82f6" opacity="0.1"/>
<circle cx="1632" cy="216" r="2" fill="#3b82f6" opacity="0.1"/>
<circle cx="1632" cy="296" r="2" fill="#3b82f6" opacity="0.1"/>
<circle cx="1632" cy="376" r="2" fill="#3b82f6" opacity="0.1"/>
<circle cx="1632" cy="456" r="2" fill="#3b82f6" opacity="0.1"/>
<circle cx="1632" cy="536" r="2" fill="#3b82f6" opacity="0.1"/>
<circle cx="1632" cy="616" r="2" fill="#3b82f6" opacity="0.1"/>
<circle cx="1632" cy="696" r="2" fill="#3b82f6" opacity="0.1"/>
<circle cx="1632" cy="776" r="2" fill="#3b82f6" opacity="0.1"/>
<circle cx="1632" cy="856" r="2" fill="#3b82f6" opacity="0.1"/>
<circle cx="1712" cy="216" r="2" fill="#3b82f6" opacity="0.1"/>
<circle cx="1712" cy="296" r="2" fill="#3b82f6" opacity="0.1"/>
<circle cx="1712" cy="376" r="2" fill="#3b82f6" opacity="0.1"/>
<circle cx="1712" cy="456" r="2" fill="#3b82f6" opacity="0.1"/>
<circle cx="1712" cy="536" r="2" fill="#3b82f6" opacity="0.1"/>
<circle cx="1712" cy="616" r="2" fill="#3b82f6" opacity="0.1"/>
<circle cx="1712" cy="696" r="2" fill="#3b82f6" opacity="0.1"/>
<circle cx="1712" cy="776" r="2" fill="#3b82f6" opacity="0.1"/>
<circle cx="1712" cy="856" r="2" fill="#3b82f6" opacity="0.1"/>
</svg>