<svg xmlns="http://www.w3.org/2000/svg" width="1920" height="1080" viewBox="0 0 1920 1080">
<defs>
<linearGradient id="bgGrad" x1="0" y1="0" x2="1" y2="1">
<stop offset="0%" stop-color="#0f172a"/>
<stop offset="50%" stop-color="#1e3a8a"/>
<stop offset="100%" stop-color="#1e293b"/>
</linearGradient>
<radialGradient id="glow1" cx="30%" cy="20%" r="40%">
<stop offset="0%" stop-color="#3b82f6" opacity="0.3"/>
<stop offset="100%" stop-color="transparent"/>
</radialGradient>
<radialGradient id="glow2" cx="70%" cy="80%" r="35%">
<stop offset="0%" stop-color="#06b6d4" opacity="0.25"/>
<stop offset="100%" stop-color="transparent"/>
</radialGradient>
<radialGradient id="glow3" cx="85%" cy="15%" r="25%">
<stop offset="0%" stop-color="#8b5cf6" opacity="0.2"/>
<stop offset="100%" stop-color="transparent"/>
</radialGradient>
</defs>
<rect width="1920" height="1080" fill="url(#bgGrad)"/>
<rect width="1920" height="1080" fill="url(#glow1)"/>
<rect width="1920" height="1080" fill="url(#glow2)"/>
<rect width="1920" height="1080" fill="url(#glow3)"/>
<circle cx="288.0" cy="756.0" r="120" fill="#3b82f6" opacity="0.1"/>
<circle cx="1632.0" cy="324.0" r="80" fill="#06b6d4" opacity="0.15"/>
<circle cx="960.0" cy="918.0" r="150" fill="#8b5cf6" opacity="0.08"/>
<circle cx="1344.0" cy="648.0" r="60" fill="#22d3ee" opacity="0.12"/>
<line x1="0" y1="324.0" x2="1920" y2="324.0" stroke="#3b82f6" stroke-width="1" opacity="0.1"/>
<line x1="0" y1="648.0" x2="1920" y2="648.0" stroke="#06b6d4" stroke-width="1" opacity="0.08"/>
<circle cx="0" cy="0" r="1.5" fill="white" opacity="0.05"/>
<circle cx="0" cy="60" r="1.5" fill="white" opacity="0.05"/>
<circle cx="0" cy="120" r="1.5" fill="white" opacity="0.05"/>
<circle cx="0" cy="180" r="1.5" fill="white" opacity="0.05"/>
<circle cx="0" cy="240" r="1.5" fill="white" opacity="0.05"/>
<circle cx="0" cy="300" r="1.5" fill="white" opacity="0.05"/>
<circle cx="0" cy="360" r="1.5" fill="white" opacity="0.05"/>
<circle cx="0" cy="420" r="1.5" fill="white" opacity="0.05"/>
<circle cx="0" cy="480" r="1.5" fill="white" opacity="0.05"/>
<circle cx="0" cy="540" r="1.5" fill="white" opacity="0.05"/>
<circle cx="0" cy="600" r="1.5" fill="white" opacity="0.05"/>
<circle cx="0" cy="660" r="1.5" fill="white" opacity="0.05"/>
<circle cx="0" cy="720" r="1.5" fill="white" opacity="0.05"/>
<circle cx="0" cy="780" r="1.5" fill="white" opacity="0.05"/>
<circle cx="0" cy="840" r="1.5" fill="white" opacity="0.05"/>
<circle cx="0" cy="900" r="1.5" fill="white" opacity="0.05"/>
<circle cx="0" cy="960" r="1.5" fill="white" opacity="0.05"/>
<circle cx="0" cy="1020" r="1.5" fill="white" opacity="0.05"/>
<circle cx="60" cy="0" r="1.5" fill="white" opacity="0.06129284946790071"/>
<circle cx="60" cy="60" r="1.5" fill="white" opacity="0.059320390859672265"/>
<circle cx="60" cy="120" r="1.5" fill="white" opacity="0.0540920515748316"/>
<circle cx="60" cy="180" r="1.5" fill="white" opacity="0.04743424094583924"/>
<circle cx="60" cy="240" r="1.5" fill="white" opacity="0.04167272377181672"/>
<circle cx="60" cy="300" r="1.5" fill="white" opacity="0.03882016376153997"/>
<circle cx="60" cy="360" r="1.5" fill="white" opacity="0.03987304219526545"/>
<circle cx="60" cy="420" r="1.5" fill="white" opacity="0.04446355834459012"/>
<circle cx="60" cy="480" r="1.5" fill="white" opacity="0.050988112848576"/>
<circle cx="60" cy="540" r="1.5" fill="white" opacity="0.05716749110636915"/>
<circle cx="60" cy="600" r="1.5" fill="white" opacity="0.06084305851069366"/>
<circle cx="60" cy="660" r="1.5" fill="white" opacity="0.06073083362048079"/>
<circle cx="60" cy="720" r="1.5" fill="white" opacity="0.05687001981861227"/>
<circle cx="60" cy="780" r="1.5" fill="white" opacity="0.05060931044239128"/>
<circle cx="60" cy="840" r="1.5" fill="white" opacity="0.04413575139867151"/>
<circle cx="60" cy="900" r="1.5" fill="white" opacity="0.039710743106887395"/>
<circle cx="60" cy="960" r="1.5" fill="white" opacity="0.038880068271647"/>
<circle cx="60" cy="1020" r="1.5" fill="white" opacity="0.041933905511564895"/>
<circle cx="120" cy="0" r="1.5" fill="white" opacity="0.06864078171934453"/>
<circle cx="120" cy="60" r="1.5" fill="white" opacity="0.06538490104273231"/>
<circle cx="120" cy="120" r="1.5" fill="white" opacity="0.05675463180551151"/>
<circle cx="120" cy="180" r="1.5" fill="white" opacity="0.045764775346648315"/>
<circle cx="120" cy="240" r="1.5" fill="white" opacity="0.036254404707379215"/>
<circle cx="120" cy="300" r="1.5" fill="white" opacity="0.03154576596708217"/>
<circle cx="120" cy="360" r="1.5" fill="white" opacity="0.033283722106130086"/>
<circle cx="120" cy="420" r="1.5" fill="white" opacity="0.040861155043841454"/>
<circle cx="120" cy="480" r="1.5" fill="white" opacity="0.05163104945095926"/>
<circle cx="120" cy="540" r="1.5" fill="white" opacity="0.06183117135926967"/>
<circle cx="120" cy="600" r="1.5" fill="white" opacity="0.06789832472684994"/>
<circle cx="120" cy="660" r="1.5" fill="white" opacity="0.06771307832930593"/>
<circle cx="120" cy="720" r="1.5" fill="white" opacity="0.06134014406287206"/>
<circle cx="120" cy="780" r="1.5" fill="white" opacity="0.05100577121728379"/>
<circle cx="120" cy="840" r="1.5" fill="white" opacity="0.040320053549278666"/>
<circle cx="120" cy="900" r="1.5" fill="white" opacity="0.033015819670318525"/>
<circle cx="120" cy="960" r="1.5" fill="white" opacity="0.03164464861845228"/>
<circle cx="120" cy="1020" r="1.5" fill="white" opacity="0.03668552989093569"/>
<circle cx="180" cy="0" r="1.5" fill="white" opacity="0.0694769526175639"/>
<circle cx="180" cy="60" r="1.5" fill="white" opacity="0.06607502266518378"/>
<circle cx="180" cy="120" r="1.5" fill="white" opacity="0.05705762481454903"/>
<circle cx="180" cy="180" r="1.5" fill="white" opacity="0.045574795567051476"/>
<circle cx="180" cy="240" r="1.5" fill="white" opacity="0.035637817541913766"/>
<circle cx="180" cy="300" r="1.5" fill="white" opacity="0.03071796305196933"/>
<circle cx="180" cy="360" r="1.5" fill="white" opacity="0.032533878815658175"/>
<circle cx="180" cy="420" r="1.5" fill="white" opacity="0.04045121321249923"/>
<circle cx="180" cy="480" r="1.5" fill="white" opacity="0.05170421355453511"/>
<circle cx="180" cy="540" r="1.5" fill="white" opacity="0.06236188307144006"/>
<circle cx="180" cy="600" r="1.5" fill="white" opacity="0.06870119117788193"/>
<circle cx="180" cy="660" r="1.5" fill="white" opacity="0.06850763516924122"/>
<circle cx="180" cy="720" r="1.5" fill="white" opacity="0.061848829727977436"/>
<circle cx="180" cy="780" r="1.5" fill="white" opacity="0.05105088716975946"/>
<circle cx="180" cy="840" r="1.5" fill="white" opacity="0.039885839488930784"/>
<circle cx="180" cy="900" r="1.5" fill="white" opacity="0.03225395906084356"/>
<circle cx="180" cy="960" r="1.5" fill="white" opacity="0.03082128128960719"/>
<circle cx="180" cy="1020" r="1.5" fill="white" opacity="0.03608828173911286"/>
<circle cx="240" cy="0" r="1.5" fill="white" opacity="0.06350926361102302"/>
<circle cx="240" cy="60" r="1.5" fill="white" opacity="0.061149676389380625"/>
<circle cx="240" cy="120" r="1.5" fill="white" opacity="0.05489518642672374"/>
<circle cx="240" cy="180" r="1.5" fill="white" opacity="0.04693066700981447"/>
<circle cx="240" cy="240" r="1.5" fill="white" opacity="0.040038353911641594"/>
<circle cx="240" cy="300" r="1.5" fill="white" opacity="0.03662593039048977"/>
<circle cx="240" cy="360" r="1.5" fill="white" opacity="0.03788545415833848"/>
<circle cx="240" cy="420" r="1.5" fill="white" opacity="0.04337693732635183"/>
<circle cx="240" cy="480" r="1.5" fill="white" opacity="0.05118204683298001"/>
<circle cx="240" cy="540" r="1.5" fill="white" opacity="0.05857423337314738"/>
<circle cx="240" cy="600" r="1.5" fill="white" opacity="0.06297119351383132"/>
<circle cx="240" cy="660" r="1.5" fill="white" opacity="0.06283694257655345"/>
<circle cx="240" cy="720" r="1.5" fill="white" opacity="0.05821837827612861"/>
<circle cx="240" cy="780" r="1.5" fill="white" opacity="0.05072889799962445"/>
<circle cx="240" cy="840" r="1.5" fill="white" opacity="0.04298479268132434"/>
<circle cx="240" cy="900" r="1.5" fill="white" opacity="0.03769130110821946"/>
<circle cx="240" cy="960" r="1.5" fill="white" opacity="0.03669759218150412"/>
<circle cx="240" cy="1020" r="1.5" fill="white" opacity="0.04035079701846533"/>
<circle cx="300" cy="0" r="1.5" fill="white" opacity="0.05282240016119734"/>
<circle cx="300" cy="60" r="1.5" fill="white" opacity="0.052329427372562985"/>
<circle cx="300" cy="120" r="1.5" fill="white" opacity="0.05102271858464607"/>
<circle cx="300" cy="180" r="1.5" fill="white" opacity="0.049358744771313856"/>
<circle cx="300" cy="240" r="1.5" fill="white" opacity="0.04791877985839048"/>
<circle cx="300" cy="300" r="1.5" fill="white" opacity="0.04720584501801074"/>
<circle cx="300" cy="360" r="1.5" fill="white" opacity="0.04746898890118342"/>
<circle cx="300" cy="420" r="1.5" fill="white" opacity="0.04861628777881927"/>
<circle cx="300" cy="480" r="1.5" fill="white" opacity="0.0502469571449641"/>
<circle cx="300" cy="540" r="1.5" fill="white" opacity="0.05179135727537129"/>
<circle cx="300" cy="600" r="1.5" fill="white" opacity="0.05270998477181889"/>
<circle cx="300" cy="660" r="1.5" fill="white" opacity="0.052681936620718725"/>
<circle cx="300" cy="720" r="1.5" fill="white" opacity="0.05171701084820045"/>
<circle cx="300" cy="780" r="1.5" fill="white" opacity="0.05015228378769349"/>
<circle cx="300" cy="840" r="1.5" fill="white" opacity="0.048534359618913114"/>
<circle cx="300" cy="900" r="1.5" fill="white" opacity="0.047428425801984905"/>
<circle cx="300" cy="960" r="1.5" fill="white" opacity="0.04722081683707759"/>
<circle cx="300" cy="1020" r="1.5" fill="white" opacity="0.0479840565085807"/>
<circle cx="360" cy="0" r="1.5" fill="white" opacity="0.04114959113410295"/>
<circle cx="360" cy="60" r="1.5" fill="white" opacity="0.04269544235646279"/>
<circle cx="360" cy="120" r="1.5" fill="white" opacity="0.046792985717153096"/>
<circle cx="360" cy="180" r="1.5" fill="white" opacity="0.05201083143322208"/>
<circle cx="360" cy="240" r="1.5" fill="white" opacity="0.056526235877683004"/>
<circle cx="360" cy="300" r="1.5" fill="white" opacity="0.058761838369084135"/>
<circle cx="360" cy="360" r="1.5" fill="white" opacity="0.05793667863849153"/>
<circle cx="360" cy="420" r="1.5" fill="white" opacity="0.05433900871979569"/>
<circle cx="360" cy="480" r="1.5" fill="white" opacity="0.049225598221210545"/>
<circle cx="360" cy="540" r="1.5" fill="white" opacity="0.04438270854363561"/>
<circle cx="360" cy="600" r="1.5" fill="white" opacity="0.04150210038225869"/>
<circle cx="360" cy="660" r="1.5" fill="white" opacity="0.0415900530434659"/>
<circle cx="360" cy="720" r="1.5" fill="white" opacity="0.04461584213228361"/>
<circle cx="360" cy="780" r="1.5" fill="white" opacity="0.049522472467489115"/>
<circle cx="360" cy="840" r="1.5" fill="white" opacity="0.05459591690835405"/>
<circle cx="360" cy="900" r="1.5" fill="white" opacity="0.05806387534777124"/>
<circle cx="360" cy="960" r="1.5" fill="white" opacity="0.05871489012906149"/>
<circle cx="360" cy="1020" r="1.5" fill="white" opacity="0.056321543059307255"/>
<circle cx="420" cy="0" r="1.5" fill="white" opacity="0.032568484551728234"/>
<circle cx="420" cy="60" r="1.5" fill="white" opacity="0.03561314947869307"/>
<circle cx="420" cy="120" r="1.5" fill="white" opacity="0.0436835552050388"/>
<circle cx="420" cy="180" r="1.5" fill="white" opacity="0.05396047682352225"/>
<circle cx="420" cy="240" r="1.5" fill="white" opacity="0.06285388994391573"/>
<circle cx="420" cy="300" r="1.5" fill="white" opacity="0.06725706949816379"/>
<circle cx="420" cy="360" r="1.5" fill="white" opacity="0.0656318581876964"/>
<circle cx="420" cy="420" r="1.5" fill="white" opacity="0.05854598908088281"/>
<circle cx="420" cy="480" r="1.5" fill="white" opacity="0.048474760118467214"/>
<circle cx="420" cy="540" r="1.5" fill="white" opacity="0.03893634132809793"/>
<circle cx="420" cy="600" r="1.5" fill="white" opacity="0.03326277681528261"/>
<circle cx="420" cy="660" r="1.5" fill="white" opacity="0.033436005893823575"/>
<circle cx="420" cy="720" r="1.5" fill="white" opacity="0.039395514662754566"/>
<circle cx="420" cy="780" r="1.5" fill="white" opacity="0.04905947525294417"/>
<circle cx="420" cy="840" r="1.5" fill="white" opacity="0.05905198819634726"/>
<circle cx="420" cy="900" r="1.5" fill="white" opacity="0.06588238123543064"/>
<circle cx="420" cy="960" r="1.5" fill="white" opacity="0.06716460157000093"/>
<circle cx="420" cy="1020" r="1.5" fill="white" opacity="0.06245073274748202"/>
<circle cx="480" cy="0" r="1.5" fill="white" opacity="0.030076707823283186"/>
<circle cx="480" cy="60" r="1.5" fill="white" opacity="0.03355659740030424"/>
<circle cx="480" cy="120" r="1.5" fill="white" opacity="0.042780640585062216"/>
<circle cx="480" cy="180" r="1.5" fill="white" opacity="0.054526613715732454"/>
<circle cx="480" cy="240" r="1.5" fill="white" opacity="0.06469131044400303"/>
<circle cx="480" cy="300" r="1.5" fill="white" opacity="0.069723909762528"/>
<circle cx="480" cy="360" r="1.5" fill="white" opacity="0.06786637994055507"/>
<circle cx="480" cy="420" r="1.5" fill="white" opacity="0.05976760958636792"/>
<circle cx="480" cy="480" r="1.5" fill="white" opacity="0.0482567321877702"/>
<circle cx="480" cy="540" r="1.5" fill="white" opacity="0.03735482839011421"/>
<circle cx="480" cy="600" r="1.5" fill="white" opacity="0.030870246839662822"/>
<circle cx="480" cy="660" r="1.5" fill="white" opacity="0.031068238434571294"/>
<circle cx="480" cy="720" r="1.5" fill="white" opacity="0.03787963901448414"/>
<circle cx="480" cy="780" r="1.5" fill="white" opacity="0.048925030391612695"/>
<circle cx="480" cy="840" r="1.5" fill="white" opacity="0.06034593958002077"/>
<circle cx="480" cy="900" r="1.5" fill="white" opacity="0.06815271441857693"/>
<circle cx="480" cy="960" r="1.5" fill="white" opacity="0.06961822385385119"/>
<circle cx="480" cy="1020" r="1.5" fill="white" opacity="0.06423052327713102"/>
<circle cx="540" cy="0" r="1.5" fill="white" opacity="0.034544710248880256"/>
<circle cx="540" cy="60" r="1.5" fill="white" opacity="0.037244198929652333"/>
<circle cx="540" cy="120" r="1.5" fill="white" opacity="0.0443996559109979"/>
<circle cx="540" cy="180" r="1.5" fill="white" opacity="0.053511474205543"/>
<circle cx="540" cy="240" r="1.5" fill="white" opacity="0.06139663353434471"/>
<circle cx="540" cy="300" r="1.5" fill="white" opacity="0.06530062088639431"/>
<circle cx="540" cy="360" r="1.5" fill="white" opacity="0.06385966116119951"/>
<circle cx="540" cy="420" r="1.5" fill="white" opacity="0.05757712304744246"/>
<circle cx="540" cy="480" r="1.5" fill="white" opacity="0.04864767785801492"/>
<circle cx="540" cy="540" r="1.5" fill="white" opacity="0.040190637699335084"/>
<circle cx="540" cy="600" r="1.5" fill="white" opacity="0.03516029000940289"/>
<circle cx="540" cy="660" r="1.5" fill="white" opacity="0.03531387996032339"/>
<circle cx="540" cy="720" r="1.5" fill="white" opacity="0.04059775416342942"/>
<circle cx="540" cy="780" r="1.5" fill="white" opacity="0.04916610334156073"/>
<circle cx="540" cy="840" r="1.5" fill="white" opacity="0.05802575661384238"/>
<circle cx="540" cy="900" r="1.5" fill="white" opacity="0.0640817821984413"/>
<circle cx="540" cy="960" r="1.5" fill="white" opacity="0.06521863612570705"/>
<circle cx="540" cy="1020" r="1.5" fill="white" opacity="0.06103918261135283"/>
<circle cx="600" cy="0" r="1.5" fill="white" opacity="0.04441169003602148"/>
<circle cx="600" cy="60" r="1.5" fill="white" opacity="0.045387768759573906"/>
<circle cx="600" cy="120" r="1.5" fill="white" opacity="0.04797503255013312"/>
<circle cx="600" cy="180" r="1.5" fill="white" opacity="0.051269675729610165"/>
<circle cx="600" cy="240" r="1.5" fill="white" opacity="0.05412078464793428"/>
<circle cx="600" cy="300" r="1.5" fill="white" opacity="0.05553238493301624"/>
<circle cx="600" cy="360" r="1.5" fill="white" opacity="0.05501136399328171"/>
<circle cx="600" cy="420" r="1.5" fill="white" opacity="0.05273972943284652"/>
<circle cx="600" cy="480" r="1.5" fill="white" opacity="0.04951102855900735"/>
<circle cx="600" cy="540" r="1.5" fill="white" opacity="0.04645313947730359"/>
<circle cx="600" cy="600" r="1.5" fill="white" opacity="0.04463427081999565"/>
<circle cx="600" cy="660" r="1.5" fill="white" opacity="0.04468980573826102"/>
<circle cx="600" cy="720" r="1.5" fill="white" opacity="0.046600344287399974"/>
<circle cx="600" cy="780" r="1.5" fill="white" opacity="0.04969848038565909"/>
<circle cx="600" cy="840" r="1.5" fill="white" opacity="0.05290194595998127"/>
<circle cx="600" cy="900" r="1.5" fill="white" opacity="0.05509167832097249"/>
<circle cx="600" cy="960" r="1.5" fill="white" opacity="0.05550274095594296"/>
<circle cx="600" cy="1020" r="1.5" fill="white" opacity="0.053991537860151206"/>
<circle cx="660" cy="0" r="1.5" fill="white" opacity="0.05623082727026757"/>
<circle cx="660" cy="60" r="1.5" fill="white" opacity="0.05514252365650228"/>
<circle cx="660" cy="120" r="1.5" fill="white" opacity="0.05225778857818618"/>
<circle cx="660" cy="180" r="1.5" fill="white" opacity="0.0485843429925244"/>
<circle cx="660" cy="240" r="1.5" fill="white" opacity="0.045405427128281675"/>
<circle cx="660" cy="300" r="1.5" fill="white" opacity="0.043831527754821666"/>
<circle cx="660" cy="360" r="1.5" fill="white" opacity="0.044412453204663235"/>
<circle cx="660" cy="420" r="1.5" fill="white" opacity="0.04694526950484659"/>
<circle cx="660" cy="480" r="1.5" fill="white" opacity="0.05054519105213519"/>
<circle cx="660" cy="540" r="1.5" fill="white" opacity="0.05395466167966792"/>
<circle cx="660" cy="600" r="1.5" fill="white" opacity="0.05598265520616173"/>
<circle cx="660" cy="660" r="1.5" fill="white" opacity="0.05592073514707224"/>
<circle cx="660" cy="720" r="1.5" fill="white" opacity="0.053790531960490696"/>
<circle cx="660" cy="780" r="1.5" fill="white" opacity="0.05033618690582051"/>
<circle cx="660" cy="840" r="1.5" fill="white" opacity="0.04676440209278921"/>
<circle cx="660" cy="900" r="1.5" fill="white" opacity="0.04432290471748292"/>
<circle cx="660" cy="960" r="1.5" fill="white" opacity="0.04386458005541665"/>
<circle cx="660" cy="1020" r="1.5" fill="white" opacity="0.04554953409713348"/>
<circle cx="720" cy="0" r="1.5" fill="white" opacity="0.06587335727698307"/>
<circle cx="720" cy="60" r="1.5" fill="white" opacity="0.06310084708887984"/>
<circle cx="720" cy="120" r="1.5" fill="white" opacity="0.055751834098893546"/>
<circle cx="720" cy="180" r="1.5" fill="white" opacity="0.04639353997685769"/>
<circle cx="720" cy="240" r="1.5" fill="white" opacity="0.03829508609941179"/>
<circle cx="720" cy="300" r="1.5" fill="white" opacity="0.03428549539992869"/>
<circle cx="720" cy="360" r="1.5" fill="white" opacity="0.03576543326638656"/>
<circle cx="720" cy="420" r="1.5" fill="white" opacity="0.042217914823951916"/>
<circle cx="720" cy="480" r="1.5" fill="white" opacity="0.05138890262550716"/>
<circle cx="720" cy="540" r="1.5" fill="white" opacity="0.06007470678099333"/>
<circle cx="720" cy="600" r="1.5" fill="white" opacity="0.0652411260067445"/>
<circle cx="720" cy="660" r="1.5" fill="white" opacity="0.0650833814283914"/>
<circle cx="720" cy="720" r="1.5" fill="white" opacity="0.059656577765492776"/>
<circle cx="720" cy="780" r="1.5" fill="white" opacity="0.050856453667620816"/>
<circle cx="720" cy="840" r="1.5" fill="white" opacity="0.04175714566332217"/>
<circle cx="720" cy="900" r="1.5" fill="white" opacity="0.03553730382723338"/>
<circle cx="720" cy="960" r="1.5" fill="white" opacity="0.03436969785867344"/>
<circle cx="720" cy="1020" r="1.5" fill="white" opacity="0.03866220611469501"/>
<circle cx="780" cy="0" r="1.5" fill="white" opacity="0.0699708669074921"/>
<circle cx="780" cy="60" r="1.5" fill="white" opacity="0.06648266771937433"/>
<circle cx="780" cy="120" r="1.5" fill="white" opacity="0.057236598487551346"/>
<circle cx="780" cy="180" r="1.5" fill="white" opacity="0.04546257720578094"/>
<circle cx="780" cy="240" r="1.5" fill="white" opacity="0.035273608248504694"/>
<circle cx="780" cy="300" r="1.5" fill="white" opacity="0.03022899161097668"/>
<circle cx="780" cy="360" r="1.5" fill="white" opacity="0.03209095701921736"/>
<circle cx="780" cy="420" r="1.5" fill="white" opacity="0.040209066387047125"/>
<circle cx="780" cy="480" r="1.5" fill="white" opacity="0.051747430552810045"/>
<circle cx="780" cy="540" r="1.5" fill="white" opacity="0.06267536695258374"/>
<circle cx="780" cy="600" r="1.5" fill="white" opacity="0.069175433003223"/>
<circle cx="780" cy="660" r="1.5" fill="white" opacity="0.06897696862516503"/>
<circle cx="780" cy="720" r="1.5" fill="white" opacity="0.06214930313552152"/>
<circle cx="780" cy="780" r="1.5" fill="white" opacity="0.05107753652299444"/>
<circle cx="780" cy="840" r="1.5" fill="white" opacity="0.03962935540206497"/>
<circle cx="780" cy="900" r="1.5" fill="white" opacity="0.031803938804512696"/>
<circle cx="780" cy="960" r="1.5" fill="white" opacity="0.030334929886511715"/>
<circle cx="780" cy="1020" r="1.5" fill="white" opacity="0.035735495726771746"/>
<circle cx="840" cy="0" r="1.5" fill="white" opacity="0.0670919781617656"/>
<circle cx="840" cy="60" r="1.5" fill="white" opacity="0.06410661830616361"/>
<circle cx="840" cy="120" r="1.5" fill="white" opacity="0.056193410826261725"/>
<circle cx="840" cy="180" r="1.5" fill="white" opacity="0.04611666675919835"/>
<circle cx="840" cy="240" r="1.5" fill="white" opacity="0.03739648271734583"/>
<circle cx="840" cy="300" r="1.5" fill="white" opacity="0.033079069867793374"/>
<circle cx="840" cy="360" r="1.5" fill="white" opacity="0.03467262473163725"/>
<circle cx="840" cy="420" r="1.5" fill="white" opacity="0.041620472748075496"/>
<circle cx="840" cy="480" r="1.5" fill="white" opacity="0.0514955307141237"/>
<circle cx="840" cy="540" r="1.5" fill="white" opacity="0.06084815677503971"/>
<circle cx="840" cy="600" r="1.5" fill="white" opacity="0.06641120957100428"/>
<circle cx="840" cy="660" r="1.5" fill="white" opacity="0.06624135471035311"/>
<circle cx="840" cy="720" r="1.5" fill="white" opacity="0.060397927382666694"/>
<circle cx="840" cy="780" r="1.5" fill="white" opacity="0.05092220486996569"/>
<circle cx="840" cy="840" r="1.5" fill="white" opacity="0.04112432966418496"/>
<circle cx="840" cy="900" r="1.5" fill="white" opacity="0.03442698146134332"/>
<circle cx="840" cy="960" r="1.5" fill="white" opacity="0.03316973667261098"/>
<circle cx="840" cy="1020" r="1.5" fill="white" opacity="0.03779178707385184"/>
<circle cx="900" cy="0" r="1.5" fill="white" opacity="0.05824236970483513"/>
<circle cx="900" cy="60" r="1.5" fill="white" opacity="0.05680272126865301"/>
<circle cx="900" cy="120" r="1.5" fill="white" opacity="0.052986686577810624"/>
<circle cx="900" cy="180" r="1.5" fill="white" opacity="0.04812731633782662"/>
<circle cx="900" cy="240" r="1.5" fill="white" opacity="0.043922128378487024"/>
<circle cx="900" cy="300" r="1.5" fill="white" opacity="0.04184011583800639"/>
<circle cx="900" cy="360" r="1.5" fill="white" opacity="0.042608585596651496"/>
<circle cx="900" cy="420" r="1.5" fill="white" opacity="0.04595908905871383"/>
<circle cx="900" cy="480" r="1.5" fill="white" opacity="0.050721198970305165"/>
<circle cx="900" cy="540" r="1.5" fill="white" opacity="0.055231373332544256"/>
<circle cx="900" cy="600" r="1.5" fill="white" opacity="0.05791407848216984"/>
<circle cx="900" cy="660" r="1.5" fill="white" opacity="0.05783216832850595"/>
<circle cx="900" cy="720" r="1.5" fill="white" opacity="0.05501425644479728"/>
<circle cx="900" cy="780" r="1.5" fill="white" opacity="0.05044472052385722"/>
<circle cx="900" cy="840" r="1.5" fill="white" opacity="0.04571983092924402"/>
<circle cx="900" cy="900" r="1.5" fill="white" opacity="0.04249012753228324"/>
<circle cx="900" cy="960" r="1.5" fill="white" opacity="0.04188383864868342"/>
<circle cx="900" cy="1020" r="1.5" fill="white" opacity="0.0441127584285267"/>
<circle cx="960" cy="0" r="1.5" fill="white" opacity="0.04651346437554041"/>
<circle cx="960" cy="60" r="1.5" fill="white" opacity="0.04712243797648214"/>
<circle cx="960" cy="120" r="1.5" fill="white" opacity="0.048736626780217895"/>
<circle cx="960" cy="180" r="1.5" fill="white" opacity="0.05079214819709929"/>
<circle cx="960" cy="240" r="1.5" fill="white" opacity="0.05257094945848717"/>
<circle cx="960" cy="300" r="1.5" fill="white" opacity="0.05345164410734514"/>
<circle cx="960" cy="360" r="1.5" fill="white" opacity="0.05312658016508297"/>
<circle cx="960" cy="420" r="1.5" fill="white" opacity="0.051709311818881165"/>
<circle cx="960" cy="480" r="1.5" fill="white" opacity="0.049694931677134374"/>
<circle cx="960" cy="540" r="1.5" fill="white" opacity="0.04778712067743529"/>
<circle cx="960" cy="600" r="1.5" fill="white" opacity="0.04665233209004592"/>
<circle cx="960" cy="660" r="1.5" fill="white" opacity="0.04668698021661401"/>
<circle cx="960" cy="720" r="1.5" fill="white" opacity="0.047878961469696474"/>
<circle cx="960" cy="780" r="1.5" fill="white" opacity="0.049811882504075616"/>
<circle cx="960" cy="840" r="1.5" fill="white" opacity="0.051810518391955496"/>
<circle cx="960" cy="900" r="1.5" fill="white" opacity="0.053176688116584124"/>
<circle cx="960" cy="960" r="1.5" fill="white" opacity="0.05343314928819895"/>
<circle cx="960" cy="1020" r="1.5" fill="white" opacity="0.05249031264112068"/>
<circle cx="1020" cy="0" r="1.5" fill="white" opacity="0.036002506248129125"/>
<circle cx="1020" cy="60" r="1.5" fill="white" opacity="0.03844736988710527"/>
<circle cx="1020" cy="120" r="1.5" fill="white" opacity="0.0449278995957708"/>
<circle cx="1020" cy="180" r="1.5" fill="white" opacity="0.05318025990087846"/>
<circle cx="1020" cy="240" r="1.5" fill="white" opacity="0.06032166392595743"/>
<circle cx="1020" cy="300" r="1.5" fill="white" opacity="0.06385741378556378"/>
<circle cx="1020" cy="360" r="1.5" fill="white" opacity="0.06255237032957484"/>
<circle cx="1020" cy="420" r="1.5" fill="white" opacity="0.05686242278350352"/>
<circle cx="1020" cy="480" r="1.5" fill="white" opacity="0.04877523352601129"/>
<circle cx="1020" cy="540" r="1.5" fill="white" opacity="0.04111589043463602"/>
<circle cx="1020" cy="600" r="1.5" fill="white" opacity="0.03656002241187944"/>
<circle cx="1020" cy="660" r="1.5" fill="white" opacity="0.03669912523123642"/>
<circle cx="1020" cy="720" r="1.5" fill="white" opacity="0.04148460627589233"/>
<circle cx="1020" cy="780" r="1.5" fill="white" opacity="0.04924475933779475"/>
<circle cx="1020" cy="840" r="1.5" fill="white" opacity="0.05726873969141574"/>
<circle cx="1020" cy="900" r="1.5" fill="white" opacity="0.06275354014787124"/>
<circle cx="1020" cy="960" r="1.5" fill="white" opacity="0.06378316210902142"/>
<circle cx="1020" cy="1020" r="1.5" fill="white" opacity="0.05999792900142669"/>
<circle cx="1080" cy="0" r="1.5" fill="white" opacity="0.03038127539867017"/>
<circle cx="1080" cy="60" r="1.5" fill="white" opacity="0.033807967867417806"/>
<circle cx="1080" cy="120" r="1.5" fill="white" opacity="0.04289100300776585"/>
<circle cx="1080" cy="180" r="1.5" fill="white" opacity="0.05445741532462894"/>
<circle cx="1080" cy="240" r="1.5" fill="white" opacity="0.06446672422795505"/>
<circle cx="1080" cy="300" r="1.5" fill="white" opacity="0.0694223901481871"/>
<circle cx="1080" cy="360" r="1.5" fill="white" opacity="0.06759325640398431"/>
<circle cx="1080" cy="420" r="1.5" fill="white" opacity="0.05961829203670495"/>
<circle cx="1080" cy="480" r="1.5" fill="white" opacity="0.048283381541005185"/>
<circle cx="1080" cy="540" r="1.5" fill="white" opacity="0.03754813526045545"/>
<circle cx="1080" cy="600" r="1.5" fill="white" opacity="0.031162683575826546"/>
<circle cx="1080" cy="660" r="1.5" fill="white" opacity="0.03135764847115779"/>
<circle cx="1080" cy="720" r="1.5" fill="white" opacity="0.038064923099334715"/>
<circle cx="1080" cy="780" r="1.5" fill="white" opacity="0.04894146346323244"/>
<circle cx="1080" cy="840" r="1.5" fill="white" opacity="0.06018778109371048"/>
<circle cx="1080" cy="900" r="1.5" fill="white" opacity="0.067875213683853"/>
<circle cx="1080" cy="960" r="1.5" fill="white" opacity="0.06931831986109896"/>
<circle cx="1080" cy="1020" r="1.5" fill="white" opacity="0.06401298111931089"/>
<circle cx="1140" cy="0" r="1.5" fill="white" opacity="0.031613429486706486"/>
<circle cx="1140" cy="60" r="1.5" fill="white" opacity="0.03482490851933073"/>
<circle cx="1140" cy="120" r="1.5" fill="white" opacity="0.04333748359627594"/>
<circle cx="1140" cy="180" r="1.5" fill="white" opacity="0.05417746733484244"/>
<circle cx="1140" cy="240" r="1.5" fill="white" opacity="0.06355814154685861"/>
<circle cx="1140" cy="300" r="1.5" fill="white" opacity="0.06820256684637557"/>
<circle cx="1140" cy="360" r="1.5" fill="white" opacity="0.06648831185531723"/>
<circle cx="1140" cy="420" r="1.5" fill="white" opacity="0.05901421516148596"/>
<circle cx="1140" cy="480" r="1.5" fill="white" opacity="0.048391193771149116"/>
<circle cx="1140" cy="540" r="1.5" fill="white" opacity="0.0383301746821957"/>
<circle cx="1140" cy="600" r="1.5" fill="white" opacity="0.032345761319733796"/>
<circle cx="1140" cy="660" r="1.5" fill="white" opacity="0.03252848144392484"/>
<circle cx="1140" cy="720" r="1.5" fill="white" opacity="0.0388145056584979"/>
<circle cx="1140" cy="780" r="1.5" fill="white" opacity="0.04900794485525044"/>
<circle cx="1140" cy="840" r="1.5" fill="white" opacity="0.059547937455669726"/>
<circle cx="1140" cy="900" r="1.5" fill="white" opacity="0.0667525608069382"/>
<circle cx="1140" cy="960" r="1.5" fill="white" opacity="0.0681050326941425"/>
<circle cx="1140" cy="1020" r="1.5" fill="white" opacity="0.06313289577622166"/>
<circle cx="1200" cy="0" r="1.5" fill="white" opacity="0.0392685416399913"/>
<circle cx="1200" cy="60" r="1.5" fill="white" opacity="0.04114294521556461"/>
<circle cx="1200" cy="120" r="1.5" fill="white" opacity="0.04611137284640732"/>
<circle cx="1200" cy="180" r="1.5" fill="white" opacity="0.05243820981850562"/>
<circle cx="1200" cy="240" r="1.5" fill="white" opacity="0.05791330995326297"/>
<circle cx="1200" cy="300" r="1.5" fill="white" opacity="0.06062406325398873"/>
<circle cx="1200" cy="360" r="1.5" fill="white" opacity="0.059623525603877243"/>
<circle cx="1200" cy="420" r="1.5" fill="white" opacity="0.05526121358976138"/>
<circle cx="1200" cy="480" r="1.5" fill="white" opacity="0.049061008302676484"/>
<circle cx="1200" cy="540" r="1.5" fill="white" opacity="0.04318881983042745"/>
<circle cx="1200" cy="600" r="1.5" fill="white" opacity="0.03969597255029398"/>
<circle cx="1200" cy="660" r="1.5" fill="white" opacity="0.03980261850707391"/>
<circle cx="1200" cy="720" r="1.5" fill="white" opacity="0.043471503199840555"/>
<circle cx="1200" cy="780" r="1.5" fill="white" opacity="0.04942097965093517"/>
<circle cx="1200" cy="840" r="1.5" fill="white" opacity="0.05557272456847817"/>
<circle cx="1200" cy="900" r="1.5" fill="white" opacity="0.05977775646595923"/>
<circle cx="1200" cy="960" r="1.5" fill="white" opacity="0.06056713672206092"/>
<circle cx="1200" cy="1020" r="1.5" fill="white" opacity="0.05766511210271435"/>
<circle cx="1260" cy="0" r="1.5" fill="white" opacity="0.05067246094442274"/>
<circle cx="1260" cy="60" r="1.5" fill="white" opacity="0.05055500596706788"/>
<circle cx="1260" cy="120" r="1.5" fill="white" opacity="0.05024367143779429"/>
<circle cx="1260" cy="180" r="1.5" fill="white" opacity="0.049847215464827864"/>
<circle cx="1260" cy="240" r="1.5" fill="white" opacity="0.04950413152563575"/>
<circle cx="1260" cy="300" r="1.5" fill="white" opacity="0.04933426871076464"/>
<circle cx="1260" cy="360" r="1.5" fill="white" opacity="0.049396964988432907"/>
<circle cx="1260" cy="420" r="1.5" fill="white" opacity="0.04967031874506776"/>
<circle cx="1260" cy="480" r="1.5" fill="white" opacity="0.05005883964903972"/>
<circle cx="1260" cy="540" r="1.5" fill="white" opacity="0.05042680617077476"/>
<circle cx="1260" cy="600" r="1.5" fill="white" opacity="0.05064567701776755"/>
<circle cx="1260" cy="660" r="1.5" fill="white" opacity="0.050638994306209696"/>
<circle cx="1260" cy="720" r="1.5" fill="white" opacity="0.05040909249951117"/>
<circle cx="1260" cy="780" r="1.5" fill="white" opacity="0.05003628291306828"/>
<circle cx="1260" cy="840" r="1.5" fill="white" opacity="0.04965079866122468"/>
<circle cx="1260" cy="900" r="1.5" fill="white" opacity="0.0493873004836009"/>
<circle cx="1260" cy="960" r="1.5" fill="white" opacity="0.04933783587453108"/>
<circle cx="1260" cy="1020" r="1.5" fill="white" opacity="0.04951968424506907"/>
<circle cx="1320" cy="0" r="1.5" fill="white" opacity="0.06184147029414449"/>
<circle cx="1320" cy="60" r="1.5" fill="white" opacity="0.05977318716665243"/>
<circle cx="1320" cy="120" r="1.5" fill="white" opacity="0.05429084858548843"/>
<circle cx="1320" cy="180" r="1.5" fill="white" opacity="0.0473095931449244"/>
<circle cx="1320" cy="240" r="1.5" fill="white" opacity="0.04126817422232951"/>
<circle cx="1320" cy="300" r="1.5" fill="white" opacity="0.03827703326007989"/>
<circle cx="1320" cy="360" r="1.5" fill="white" opacity="0.03938106185195514"/>
<circle cx="1320" cy="420" r="1.5" fill="white" opacity="0.04419459104771123"/>
<circle cx="1320" cy="480" r="1.5" fill="white" opacity="0.051036116613166045"/>
<circle cx="1320" cy="540" r="1.5" fill="white" opacity="0.057515696836379845"/>
<circle cx="1320" cy="600" r="1.5" fill="white" opacity="0.06136982792669051"/>
<circle cx="1320" cy="660" r="1.5" fill="white" opacity="0.06125215101020485"/>
<circle cx="1320" cy="720" r="1.5" fill="white" opacity="0.05720377401943744"/>
<circle cx="1320" cy="780" r="1.5" fill="white" opacity="0.05063891150980068"/>
<circle cx="1320" cy="840" r="1.5" fill="white" opacity="0.043850858828190994"/>
<circle cx="1320" cy="900" r="1.5" fill="white" opacity="0.039210878069796506"/>
<circle cx="1320" cy="960" r="1.5" fill="white" opacity="0.038339848006609015"/>
<circle cx="1320" cy="1020" r="1.5" fill="white" opacity="0.04154204449939218"/>
<circle cx="1380" cy="0" r="1.5" fill="white" opacity="0.0688739133888821"/>
<circle cx="1380" cy="60" r="1.5" fill="white" opacity="0.06557731291256502"/>
<circle cx="1380" cy="120" r="1.5" fill="white" opacity="0.05683910887378254"/>
<circle cx="1380" cy="180" r="1.5" fill="white" opacity="0.04571180734299009"/>
<circle cx="1380" cy="240" r="1.5" fill="white" opacity="0.03608249487936857"/>
<circle cx="1380" cy="300" r="1.5" fill="white" opacity="0.03131496736352004"/>
<circle cx="1380" cy="360" r="1.5" fill="white" opacity="0.03307465931935824"/>
<circle cx="1380" cy="420" r="1.5" fill="white" opacity="0.04074685972005344"/>
<circle cx="1380" cy="480" r="1.5" fill="white" opacity="0.05165144823505134"/>
<circle cx="1380" cy="540" r="1.5" fill="white" opacity="0.061979138369081775"/>
<circle cx="1380" cy="600" r="1.5" fill="white" opacity="0.06812217082881711"/>
<circle cx="1380" cy="660" r="1.5" fill="white" opacity="0.06793460763991822"/>
<circle cx="1380" cy="720" r="1.5" fill="white" opacity="0.06148197002049434"/>
<circle cx="1380" cy="780" r="1.5" fill="white" opacity="0.051018349934560156"/>
<circle cx="1380" cy="840" r="1.5" fill="white" opacity="0.04019899091837252"/>
<circle cx="1380" cy="900" r="1.5" fill="white" opacity="0.032803406351199146"/>
<circle cx="1380" cy="960" r="1.5" fill="white" opacity="0.031415086694657625"/>
<circle cx="1380" cy="1020" r="1.5" fill="white" opacity="0.03651901194698525"/>
<circle cx="1440" cy="0" r="1.5" fill="white" opacity="0.06931315553098555"/>
<circle cx="1440" cy="60" r="1.5" fill="white" opacity="0.06593983509601221"/>
<circle cx="1440" cy="120" r="1.5" fill="white" opacity="0.05699827167006667"/>
<circle cx="1440" cy="180" r="1.5" fill="white" opacity="0.0456120106082267"/>
<circle cx="1440" cy="240" r="1.5" fill="white" opacity="0.035758600484180614"/>
<circle cx="1440" cy="300" r="1.5" fill="white" opacity="0.030880120938646914"/>
<circle cx="1440" cy="360" r="1.5" fill="white" opacity="0.03268076523161833"/>
<circle cx="1440" cy="420" r="1.5" fill="white" opacity="0.040531516506698353"/>
<circle cx="1440" cy="480" r="1.5" fill="white" opacity="0.05168988147596916"/>
<circle cx="1440" cy="540" r="1.5" fill="white" opacity="0.06225792222748862"/>
<circle cx="1440" cy="600" r="1.5" fill="white" opacity="0.0685439180823095"/>
<circle cx="1440" cy="660" r="1.5" fill="white" opacity="0.0683519898391066"/>
<circle cx="1440" cy="720" r="1.5" fill="white" opacity="0.06174918355504094"/>
<circle cx="1440" cy="780" r="1.5" fill="white" opacity="0.05104204942906619"/>
<circle cx="1440" cy="840" r="1.5" fill="white" opacity="0.039970897457568294"/>
<circle cx="1440" cy="900" r="1.5" fill="white" opacity="0.03240319954323364"/>
<circle cx="1440" cy="960" r="1.5" fill="white" opacity="0.030982570291575355"/>
<circle cx="1440" cy="1020" r="1.5" fill="white" opacity="0.036205276371957903"/>
<circle cx="1500" cy="0" r="1.5" fill="white" opacity="0.06300575680314233"/>
<circle cx="1500" cy="60" r="1.5" fill="white" opacity="0.06073411428848721"/>
<circle cx="1500" cy="120" r="1.5" fill="white" opacity="0.05471273683045638"/>
<circle cx="1500" cy="180" r="1.5" fill="white" opacity="0.0470450648112572"/>
<circle cx="1500" cy="240" r="1.5" fill="white" opacity="0.04040963666750504"/>
<circle cx="1500" cy="300" r="1.5" fill="white" opacity="0.03712439835227889"/>
<circle cx="1500" cy="360" r="1.5" fill="white" opacity="0.03833697812598702"/>
<circle cx="1500" cy="420" r="1.5" fill="white" opacity="0.04362378698753405"/>
<circle cx="1500" cy="480" r="1.5" fill="white" opacity="0.051137990499135616"/>
<circle cx="1500" cy="540" r="1.5" fill="white" opacity="0.058254661189196894"/>
<circle cx="1500" cy="600" r="1.5" fill="white" opacity="0.06248774123777812"/>
<circle cx="1500" cy="660" r="1.5" fill="white" opacity="0.062358493997432214"/>
<circle cx="1500" cy="720" r="1.5" fill="white" opacity="0.05791206924767845"/>
<circle cx="1500" cy="780" r="1.5" fill="white" opacity="0.05070173107804908"/>
<circle cx="1500" cy="840" r="1.5" fill="white" opacity="0.04324625805392729"/>
<circle cx="1500" cy="900" r="1.5" fill="white" opacity="0.0381500613979445"/>
<circle cx="1500" cy="960" r="1.5" fill="white" opacity="0.03719338922053389"/>
<circle cx="1500" cy="1020" r="1.5" fill="white" opacity="0.04071043463689636"/>
<circle cx="1560" cy="0" r="1.5" fill="white" opacity="0.052155073045988876"/>
<circle cx="1560" cy="60" r="1.5" fill="white" opacity="0.05177865853758651"/>
<circle cx="1560" cy="120" r="1.5" fill="white" opacity="0.05078090742967774"/>
<circle cx="1560" cy="180" r="1.5" fill="white" opacity="0.04951036288973471"/>
<circle cx="1560" cy="240" r="1.5" fill="white" opacity="0.04841086267935547"/>
<circle cx="1560" cy="300" r="1.5" fill="white" opacity="0.047866493854845135"/>
<circle cx="1560" cy="360" r="1.5" fill="white" opacity="0.048067420108194606"/>
<circle cx="1560" cy="420" r="1.5" fill="white" opacity="0.04894345211842429"/>
<circle cx="1560" cy="480" r="1.5" fill="white" opacity="0.05018856670076177"/>
<circle cx="1560" cy="540" r="1.5" fill="white" opacity="0.051367809509425134"/>
<circle cx="1560" cy="600" r="1.5" fill="white" opacity="0.05206923710431963"/>
<circle cx="1560" cy="660" r="1.5" fill="white" opacity="0.052047820646349975"/>
<circle cx="1560" cy="720" r="1.5" fill="white" opacity="0.051311041520440366"/>
<circle cx="1560" cy="780" r="1.5" fill="white" opacity="0.050116277872539555"/>
<circle cx="1560" cy="840" r="1.5" fill="white" opacity="0.04888089501842528"/>
<circle cx="1560" cy="900" r="1.5" fill="white" opacity="0.04803644773122755"/>
<circle cx="1560" cy="960" r="1.5" fill="white" opacity="0.04787792574326549"/>
<circle cx="1560" cy="1020" r="1.5" fill="white" opacity="0.04846070534564051"/>
<circle cx="1620" cy="0" r="1.5" fill="white" opacity="0.040551560272030676"/>
<circle cx="1620" cy="60" r="1.5" fill="white" opacity="0.0422018661871794"/>
<circle cx="1620" cy="120" r="1.5" fill="white" opacity="0.046576284596864845"/>
<circle cx="1620" cy="180" r="1.5" fill="white" opacity="0.052146705297776014"/>
<circle cx="1620" cy="240" r="1.5" fill="white" opacity="0.05696722007707481"/>
<circle cx="1620" cy="300" r="1.5" fill="white" opacity="0.05935388443527118"/>
<circle cx="1620" cy="360" r="1.5" fill="white" opacity="0.058472967847282405"/>
<circle cx="1620" cy="420" r="1.5" fill="white" opacity="0.05463219982142233"/>
<circle cx="1620" cy="480" r="1.5" fill="white" opacity="0.04917327112871381"/>
<circle cx="1620" cy="540" r="1.5" fill="white" opacity="0.044003142615884505"/>
<circle cx="1620" cy="600" r="1.5" fill="white" opacity="0.040927888917996987"/>
<circle cx="1620" cy="660" r="1.5" fill="white" opacity="0.041021784627327765"/>
<circle cx="1620" cy="720" r="1.5" fill="white" opacity="0.04425202927121108"/>
<circle cx="1620" cy="780" r="1.5" fill="white" opacity="0.04949020546081657"/>
<circle cx="1620" cy="840" r="1.5" fill="white" opacity="0.05490646754983981"/>
<circle cx="1620" cy="900" r="1.5" fill="white" opacity="0.05860875936374628"/>
<circle cx="1620" cy="960" r="1.5" fill="white" opacity="0.05930376385633415"/>
<circle cx="1620" cy="1020" r="1.5" fill="white" opacity="0.056748695962937704"/>
<circle cx="1680" cy="0" r="1.5" fill="white" opacity="0.03224865932836991"/>
<circle cx="1680" cy="60" r="1.5" fill="white" opacity="0.035349186331309"/>
<circle cx="1680" cy="120" r="1.5" fill="white" opacity="0.04356766405527767"/>
<circle cx="1680" cy="180" r="1.5" fill="white" opacity="0.054033141784204944"/>
<circle cx="1680" cy="240" r="1.5" fill="white" opacity="0.06308972705369173"/>
<circle cx="1680" cy="300" r="1.5" fill="white" opacity="0.06757369406951211"/>
<circle cx="1680" cy="360" r="1.5" fill="white" opacity="0.06591866414849894"/>
<circle cx="1680" cy="420" r="1.5" fill="white" opacity="0.05870278685757193"/>
<circle cx="1680" cy="480" r="1.5" fill="white" opacity="0.048446775736545065"/>
<circle cx="1680" cy="540" r="1.5" fill="white" opacity="0.03873335053728564"/>
<circle cx="1680" cy="600" r="1.5" fill="white" opacity="0.032955690138892636"/>
<circle cx="1680" cy="660" r="1.5" fill="white" opacity="0.03313209754285808"/>
<circle cx="1680" cy="720" r="1.5" fill="white" opacity="0.03920094856770396"/>
<circle cx="1680" cy="780" r="1.5" fill="white" opacity="0.049042218948511324"/>
<circle cx="1680" cy="840" r="1.5" fill="white" opacity="0.05921806980613757"/>
<circle cx="1680" cy="900" r="1.5" fill="white" opacity="0.06617378367494645"/>
<circle cx="1680" cy="960" r="1.5" fill="white" opacity="0.06747952958341852"/>
<circle cx="1680" cy="1020" r="1.5" fill="white" opacity="0.0626791729191788"/>
<circle cx="1740" cy="0" r="1.5" fill="white" opacity="0.030146812390587346"/>
<circle cx="1740" cy="60" r="1.5" fill="white" opacity="0.033614457196468196"/>
<circle cx="1740" cy="120" r="1.5" fill="white" opacity="0.04280604351864911"/>
<circle cx="1740" cy="180" r="1.5" fill="white" opacity="0.05451068581119339"/>
<circle cx="1740" cy="240" r="1.5" fill="white" opacity="0.0646396157766422"/>
<circle cx="1740" cy="300" r="1.5" fill="white" opacity="0.06965450676691946"/>
<circle cx="1740" cy="360" r="1.5" fill="white" opacity="0.06780351307980159"/>
<circle cx="1740" cy="420" r="1.5" fill="white" opacity="0.05973324006362164"/>
<circle cx="1740" cy="480" r="1.5" fill="white" opacity="0.048262866266143775"/>
<circle cx="1740" cy="540" r="1.5" fill="white" opacity="0.0373993232595532"/>
<circle cx="1740" cy="600" r="1.5" fill="white" opacity="0.030937559162146758"/>
<circle cx="1740" cy="660" r="1.5" fill="white" opacity="0.031134854079268855"/>
<circle cx="1740" cy="720" r="1.5" fill="white" opacity="0.03792228722015834"/>
<circle cx="1740" cy="780" r="1.5" fill="white" opacity="0.04892881291302495"/>
<circle cx="1740" cy="840" r="1.5" fill="white" opacity="0.060309535073617956"/>
<circle cx="1740" cy="900" r="1.5" fill="white" opacity="0.06808884002580978"/>
<circle cx="1740" cy="960" r="1.5" fill="white" opacity="0.06954919273779107"/>
<circle cx="1740" cy="1020" r="1.5" fill="white" opacity="0.06418044999265543"/>
<circle cx="1800" cy="0" r="1.5" fill="white" opacity="0.03498025506456648"/>
<circle cx="1800" cy="60" r="1.5" fill="white" opacity="0.03760366957792745"/>
<circle cx="1800" cy="120" r="1.5" fill="white" opacity="0.04455747895238392"/>
<circle cx="1800" cy="180" r="1.5" fill="white" opacity="0.05341251751108638"/>
<circle cx="1800" cy="240" r="1.5" fill="white" opacity="0.06107546552442113"/>
<circle cx="1800" cy="300" r="1.5" fill="white" opacity="0.06486943478693172"/>
<circle cx="1800" cy="360" r="1.5" fill="white" opacity="0.06346908268204218"/>
<circle cx="1800" cy="420" r="1.5" fill="white" opacity="0.057363592488373444"/>
<circle cx="1800" cy="480" r="1.5" fill="white" opacity="0.048685787586629795"/>
<circle cx="1800" cy="540" r="1.5" fill="white" opacity="0.04046707489100487"/>
<circle cx="1800" cy="600" r="1.5" fill="white" opacity="0.03557848719992941"/>
<circle cx="1800" cy="660" r="1.5" fill="white" opacity="0.035727748839447016"/>
<circle cx="1800" cy="720" r="1.5" fill="white" opacity="0.04086271842458984"/>
<circle cx="1800" cy="780" r="1.5" fill="white" opacity="0.049189603345264954"/>
<circle cx="1800" cy="840" r="1.5" fill="white" opacity="0.057799583132697174"/>
<circle cx="1800" cy="900" r="1.5" fill="white" opacity="0.0636849441364626"/>
<circle cx="1800" cy="960" r="1.5" fill="white" opacity="0.06478976043504672"/>
<circle cx="1800" cy="1020" r="1.5" fill="white" opacity="0.06072808790958964"/>
<circle cx="1860" cy="0" r="1.5" fill="white" opacity="0.04506052676526758"/>
<circle cx="1860" cy="60" r="1.5" fill="white" opacity="0.04592327682048222"/>
<circle cx="1860" cy="120" r="1.5" fill="white" opacity="0.048210143570364725"/>
<circle cx="1860" cy="180" r="1.5" fill="white" opacity="0.051122258665611646"/>
<circle cx="1860" cy="240" r="1.5" fill="white" opacity="0.05364233652137587"/>
<circle cx="1860" cy="300" r="1.5" fill="white" opacity="0.05489004143954382"/>
<circle cx="1860" cy="360" r="1.5" fill="white" opacity="0.05442951419550354"/>
<circle cx="1860" cy="420" r="1.5" fill="white" opacity="0.052421630205050314"/>
<circle cx="1860" cy="480" r="1.5" fill="white" opacity="0.049567801113234555"/>
<circle cx="1860" cy="540" r="1.5" fill="white" opacity="0.04686495152700601"/>
<circle cx="1860" cy="600" r="1.5" fill="white" opacity="0.045257264568305165"/>
<circle cx="1860" cy="660" r="1.5" fill="white" opacity="0.04530635154525044"/>
<circle cx="1860" cy="720" r="1.5" fill="white" opacity="0.04699506496455365"/>
<circle cx="1860" cy="780" r="1.5" fill="white" opacity="0.04973348864426206"/>
<circle cx="1860" cy="840" r="1.5" fill="white" opacity="0.05256501240810959"/>
<circle cx="1860" cy="900" r="1.5" fill="white" opacity="0.0545005035419341"/>
<circle cx="1860" cy="960" r="1.5" fill="white" opacity="0.05486383930826114"/>
<circle cx="1860" cy="1020" r="1.5" fill="white" opacity="0.053528096070677045"/>
<g transform="translate(960.0, 540.0)" opacity="0.08">
<circle cx="0" cy="0" r="100" fill="none" stroke="white" stroke-width="3"/>
<circle cx="0" cy="0" r="70" fill="none" stroke="white" stroke-width="2"/>
<text x="0" y="10" font-family="sans-serif" font-size="48" font-weight="bold" fill="white" text-anchor="middle">DoubaoOS</text>
</g>
</svg>