<defs><linearGradient id="g1" x1="0" y1="0" x2="1" y2="1">
<stop offset="0%" stop-color="#334155"/>
<stop offset="100%" stop-color="#1e293b"/>
</linearGradient></defs>
<svg xmlns="http://www.w3.org/2000/svg" width="16" height="16" viewBox="0 0 16 16">
<rect x="3.2" y="1.92" width="9.6" height="12.16" rx="0.8" fill="url(#g1)"/>
<rect x="4.16" y="3.2" width="7.68" height="2.4" rx="0.32" fill="#10b981" opacity="0.3"/>
<text x="10.88" y="4.96" font-family="monospace" font-size="1.6" fill="#10b981" text-anchor="end">0</text>
<rect x="4.16" y="6.4" width="2.08" height="1.28" rx="0.24" fill="#6b7280"/>
<rect x="6.880000000000001" y="6.4" width="2.08" height="1.28" rx="0.24" fill="#6b7280"/>
<rect x="9.600000000000001" y="6.4" width="2.08" height="1.28" rx="0.24" fill="#6b7280"/>
<rect x="4.16" y="8.16" width="2.08" height="1.28" rx="0.24" fill="#6b7280"/>
<rect x="6.880000000000001" y="8.16" width="2.08" height="1.28" rx="0.24" fill="#6b7280"/>
<rect x="9.600000000000001" y="8.16" width="2.08" height="1.28" rx="0.24" fill="#6b7280"/>
<rect x="4.16" y="9.92" width="2.08" height="1.28" rx="0.24" fill="#6b7280"/>
<rect x="6.880000000000001" y="9.92" width="2.08" height="1.28" rx="0.24" fill="#6b7280"/>
<rect x="9.600000000000001" y="9.92" width="2.08" height="1.28" rx="0.24" fill="#6b7280"/>
<rect x="4.16" y="11.68" width="2.08" height="1.28" rx="0.24" fill="#6b7280"/>
<rect x="6.880000000000001" y="11.68" width="2.08" height="1.28" rx="0.24" fill="#6b7280"/>
<rect x="9.600000000000001" y="11.68" width="2.08" height="1.28" rx="0.24" fill="#3b82f6"/>
</svg>